<?xml version="1.0" encoding="UTF-8"?>
<svg width="32" height="32" viewBox="0 0 32 32" fill="none" xmlns="http://www.w3.org/2000/svg">
  <!-- 实验室烧杯图标 -->
  <path d="M10 4C10 2.89543 10.8954 2 12 2H20C21.1046 2 22 2.89543 22 4V10.5C22 10.5 22 11 22.5 11.5L28 20C29.5 22.5 28 26 24.5 26H7.5C4 26 2.5 22.5 4 20L9.5 11.5C10 11 10 10.5 10 10.5V4Z" stroke="currentColor" stroke-width="2" stroke-linecap="round" stroke-linejoin="round"/>
  
  <!-- 液体 -->
  <path d="M10 14H22L19 20H13L10 14Z" fill="currentColor" fill-opacity="0.2"/>
  
  <!-- 气泡 -->
  <circle cx="14" cy="17" r="1" fill="currentColor"/>
  <circle cx="18" cy="19" r="1" fill="currentColor"/>
  <circle cx="16" cy="16" r="0.8" fill="currentColor"/>
  
  <!-- 刻度线 -->
  <line x1="13" y1="6" x2="15" y2="6" stroke="currentColor" stroke-width="1.5"/>
  <line x1="13" y1="9" x2="15" y2="9" stroke="currentColor" stroke-width="1.5"/>
</svg>
